<svg width="145" height="38" viewBox="0 0 145 38" fill="none" xmlns="http://www.w3.org/2000/svg">
<g filter="url(#filter0_dd_258_50996)">
<rect x="3.1" y="2.1" width="31.8" height="31.8" rx="7.9" fill="white"/>
<rect x="3.1" y="2.1" width="31.8" height="31.8" rx="7.9" fill="url(#paint0_linear_258_50996)"/>
<path fill-rule="evenodd" clip-rule="evenodd" d="M18.9998 4.03861C11.2892 4.03861 5.03861 10.2892 5.03861 17.9998C5.03861 25.7103 11.2892 31.9609 18.9998 31.9609C26.7103 31.9609 32.9609 25.7103 32.9609 17.9998C32.9609 10.2892 26.7103 4.03861 18.9998 4.03861ZM4.96094 17.9998C4.96094 10.2463 11.2463 3.96094 18.9998 3.96094C26.7532 3.96094 33.0386 10.2463 33.0386 17.9998C33.0386 25.7532 26.7532 32.0386 18.9998 32.0386C11.2463 32.0386 4.96094 25.7532 4.96094 17.9998Z" fill="#D0D5DD"/>
<path fill-rule="evenodd" clip-rule="evenodd" d="M19 14.0777C16.8338 14.0777 15.0777 15.8338 15.0777 18C15.0777 20.1662 16.8338 21.9223 19 21.9223C21.1662 21.9223 22.9223 20.1662 22.9223 18C22.9223 15.8338 21.1662 14.0777 19 14.0777ZM15 18C15 15.7909 16.7909 14 19 14C21.2091 14 23 15.7909 23 18C23 20.2091 21.2091 22 19 22C16.7909 22 15 20.2091 15 18Z" fill="#D0D5DD"/>
<path fill-rule="evenodd" clip-rule="evenodd" d="M19 15.3199C17.52 15.3199 16.3203 16.5196 16.3203 17.9995C16.3203 19.4794 17.52 20.6791 19 20.6791C20.4799 20.6791 21.6796 19.4794 21.6796 17.9995C21.6796 16.5196 20.4799 15.3199 19 15.3199ZM16.2427 17.9995C16.2427 16.4767 17.4772 15.2422 19 15.2422C20.5228 15.2422 21.7572 16.4767 21.7572 17.9995C21.7572 19.5223 20.5228 20.7568 19 20.7568C17.4772 20.7568 16.2427 19.5223 16.2427 17.9995Z" fill="#D0D5DD"/>
<path d="M18.9609 2H19.0386V34H18.9609V2Z" fill="#D0D5DD"/>
<path d="M35 17.9609L35 18.0386L3 18.0386L3 17.9609L35 17.9609Z" fill="#D0D5DD"/>
<path d="M29.6021 2H29.6797V34H29.6021V2Z" fill="#D0D5DD"/>
<path d="M13.6406 2H13.7183V34H13.6406V2Z" fill="#D0D5DD"/>
<path d="M24.2817 2H24.3594V34H24.2817V2Z" fill="#D0D5DD"/>
<path d="M8.32031 2H8.39798V34H8.32031V2Z" fill="#D0D5DD"/>
<path d="M35 28.6016L35 28.6792L3 28.6792L3 28.6016L35 28.6016Z" fill="#D0D5DD"/>
<path d="M35 12.6406L35 12.7183L3 12.7183L3 12.6406L35 12.6406Z" fill="#D0D5DD"/>
<path d="M35 23.2812L35 23.3589L3 23.3589L3 23.2812L35 23.2812Z" fill="#D0D5DD"/>
<path d="M35 7.32031L35 7.39798L3 7.39798L3 7.32031L35 7.32031Z" fill="#D0D5DD"/>
<path d="M11 14C11 11.7909 12.7909 10 15 10H18V26H15C12.7909 26 11 24.2091 11 22V14Z" fill="#1570EF"/>
<path d="M20 10H23C25.2091 10 27 11.7909 27 14V17H20V10Z" fill="#1570EF"/>
<path d="M20 19H27V22C27 24.2091 25.2091 26 23 26H20V19Z" fill="#1570EF"/>
<rect x="3.1" y="2.1" width="31.8" height="31.8" rx="7.9" stroke="#D0D5DD" stroke-width="0.2"/>
</g>
<path d="M48.6328 26H45.5391L51.1719 10H54.75L60.3906 26H57.2969L53.0234 13.2812H52.8984L48.6328 26ZM48.7344 19.7266H57.1719V22.0547H48.7344V19.7266ZM67.6822 26.2344C66.4843 26.2344 65.4556 25.9714 64.5962 25.4453C63.7421 24.9193 63.0832 24.1927 62.6197 23.2656C62.1614 22.3333 61.9322 21.2604 61.9322 20.0469C61.9322 18.8281 62.1666 17.7526 62.6353 16.8203C63.1041 15.8828 63.7655 15.1536 64.6197 14.6328C65.4791 14.1068 66.4947 13.8438 67.6666 13.8438C68.6405 13.8438 69.5025 14.0234 70.2525 14.3828C71.0077 14.737 71.6093 15.2396 72.0572 15.8906C72.5051 16.5365 72.7603 17.2917 72.8228 18.1562H70.1197C70.0103 17.5781 69.7499 17.0964 69.3384 16.7109C68.9322 16.3203 68.3879 16.125 67.7056 16.125C67.1275 16.125 66.6197 16.2812 66.1822 16.5937C65.7447 16.901 65.4035 17.3437 65.1587 17.9219C64.9192 18.5 64.7994 19.1927 64.7994 20C64.7994 20.8177 64.9192 21.5208 65.1587 22.1094C65.3983 22.6927 65.7343 23.1432 66.1666 23.4609C66.6041 23.7734 67.1171 23.9297 67.7056 23.9297C68.1223 23.9297 68.4947 23.8516 68.8228 23.6953C69.1561 23.5339 69.4348 23.3021 69.6587 23C69.8827 22.6979 70.0364 22.3307 70.1197 21.8984H72.8228C72.7551 22.7474 72.5051 23.5 72.0728 24.1562C71.6405 24.8073 71.052 25.3177 70.3072 25.6875C69.5624 26.0521 68.6874 26.2344 67.6822 26.2344ZM81.5773 14V16.1875H74.6788V14H81.5773ZM76.382 11.125H79.2101V22.3906C79.2101 22.7708 79.2674 23.0625 79.382 23.2656C79.5017 23.4635 79.658 23.599 79.8507 23.6719C80.0434 23.7448 80.257 23.7812 80.4913 23.7812C80.6684 23.7812 80.8299 23.7682 80.9757 23.7422C81.1267 23.7161 81.2413 23.6927 81.3195 23.6719L81.796 25.8828C81.645 25.9349 81.4288 25.9922 81.1476 26.0547C80.8715 26.1172 80.533 26.1536 80.132 26.1641C79.4236 26.1849 78.7856 26.0781 78.2179 25.8437C77.6502 25.6042 77.1997 25.2344 76.8663 24.7344C76.5382 24.2344 76.3767 23.6094 76.382 22.8594V11.125ZM84.3825 26V14H87.2106V26H84.3825ZM85.8044 12.2969C85.3565 12.2969 84.971 12.1484 84.6481 11.8516C84.3252 11.5495 84.1637 11.1875 84.1637 10.7656C84.1637 10.3385 84.3252 9.97656 84.6481 9.67969C84.971 9.3776 85.3565 9.22656 85.8044 9.22656C86.2575 9.22656 86.6429 9.3776 86.9606 9.67969C87.2835 9.97656 87.445 10.3385 87.445 10.7656C87.445 11.1875 87.2835 11.5495 86.9606 11.8516C86.6429 12.1484 86.2575 12.2969 85.8044 12.2969ZM101.278 14L97.0041 26H93.8791L89.6057 14H92.6213L95.3791 22.9141H95.5041L98.2698 14H101.278ZM108.579 26.2344C107.376 26.2344 106.337 25.9844 105.462 25.4844C104.592 24.9792 103.923 24.2656 103.454 23.3437C102.985 22.4167 102.751 21.3255 102.751 20.0703C102.751 18.8359 102.985 17.7526 103.454 16.8203C103.928 15.8828 104.589 15.1536 105.438 14.6328C106.287 14.1068 107.285 13.8438 108.43 13.8438C109.17 13.8438 109.868 13.9635 110.524 14.2031C111.186 14.4375 111.769 14.8021 112.274 15.2969C112.785 15.7917 113.186 16.4219 113.477 17.1875C113.769 17.9479 113.915 18.8542 113.915 19.9062V20.7734H104.079V18.8672H111.204C111.199 18.3255 111.082 17.8437 110.852 17.4219C110.623 16.9948 110.303 16.6589 109.891 16.4141C109.485 16.1693 109.011 16.0469 108.47 16.0469C107.891 16.0469 107.384 16.1875 106.946 16.4687C106.509 16.7448 106.167 17.1094 105.923 17.5625C105.683 18.0104 105.561 18.5026 105.555 19.0391V20.7031C105.555 21.401 105.683 22 105.938 22.5C106.193 22.9948 106.55 23.375 107.009 23.6406C107.467 23.901 108.003 24.0312 108.618 24.0312C109.029 24.0312 109.402 23.974 109.735 23.8594C110.068 23.7396 110.358 23.5651 110.602 23.3359C110.847 23.1068 111.032 22.8229 111.157 22.4844L113.798 22.7812C113.631 23.4792 113.313 24.0885 112.845 24.6094C112.381 25.125 111.787 25.526 111.063 25.8125C110.339 26.0937 109.511 26.2344 108.579 26.2344ZM125.668 10V26H122.769V10H125.668ZM143.543 18C143.543 19.724 143.221 21.2005 142.575 22.4297C141.934 23.6536 141.059 24.5911 139.95 25.2422C138.846 25.8932 137.593 26.2187 136.192 26.2187C134.791 26.2187 133.536 25.8932 132.426 25.2422C131.322 24.5859 130.447 23.6458 129.801 22.4219C129.161 21.1927 128.84 19.7187 128.84 18C128.84 16.276 129.161 14.8021 129.801 13.5781C130.447 12.349 131.322 11.4089 132.426 10.7578C133.536 10.1068 134.791 9.78125 136.192 9.78125C137.593 9.78125 138.846 10.1068 139.95 10.7578C141.059 11.4089 141.934 12.349 142.575 13.5781C143.221 14.8021 143.543 16.276 143.543 18ZM140.629 18C140.629 16.7865 140.439 15.763 140.059 14.9297C139.684 14.0911 139.163 13.4583 138.497 13.0313C137.83 12.599 137.062 12.3828 136.192 12.3828C135.322 12.3828 134.554 12.599 133.887 13.0313C133.221 13.4583 132.697 14.0911 132.317 14.9297C131.942 15.763 131.754 16.7865 131.754 18C131.754 19.2135 131.942 20.2396 132.317 21.0781C132.697 21.9115 133.221 22.5443 133.887 22.9766C134.554 23.4036 135.322 23.6172 136.192 23.6172C137.062 23.6172 137.83 23.4036 138.497 22.9766C139.163 22.5443 139.684 21.9115 140.059 21.0781C140.439 20.2396 140.629 19.2135 140.629 18Z" fill="white"/>
<defs>
<filter id="filter0_dd_258_50996" x="0" y="0" width="38" height="38" filterUnits="userSpaceOnUse" color-interpolation-filters="sRGB">
<feFlood flood-opacity="0" result="BackgroundImageFix"/>
<feColorMatrix in="SourceAlpha" type="matrix" values="0 0 0 0 0 0 0 0 0 0 0 0 0 0 0 0 0 0 127 0" result="hardAlpha"/>
<feOffset dy="1"/>
<feGaussianBlur stdDeviation="1"/>
<feColorMatrix type="matrix" values="0 0 0 0 0.0627451 0 0 0 0 0.0941176 0 0 0 0 0.156863 0 0 0 0.06 0"/>
<feBlend mode="normal" in2="BackgroundImageFix" result="effect1_dropShadow_258_50996"/>
<feColorMatrix in="SourceAlpha" type="matrix" values="0 0 0 0 0 0 0 0 0 0 0 0 0 0 0 0 0 0 127 0" result="hardAlpha"/>
<feOffset dy="1"/>
<feGaussianBlur stdDeviation="1.5"/>
<feColorMatrix type="matrix" values="0 0 0 0 0.0627451 0 0 0 0 0.0941176 0 0 0 0 0.156863 0 0 0 0.1 0"/>
<feBlend mode="normal" in2="effect1_dropShadow_258_50996" result="effect2_dropShadow_258_50996"/>
<feBlend mode="normal" in="SourceGraphic" in2="effect2_dropShadow_258_50996" result="shape"/>
</filter>
<linearGradient id="paint0_linear_258_50996" x1="19" y1="2" x2="19" y2="34" gradientUnits="userSpaceOnUse">
<stop stop-color="white"/>
<stop offset="1" stop-color="#D0D5DD"/>
</linearGradient>
</defs>
</svg>
