<svg width="38" height="38" viewBox="0 0 38 38" fill="none" xmlns="http://www.w3.org/2000/svg">
<g filter="url(#filter0_dd_258_50865)">
<rect x="3.1" y="2.1" width="31.8" height="31.8" rx="7.9" fill="white"/>
<rect x="3.1" y="2.1" width="31.8" height="31.8" rx="7.9" fill="url(#paint0_linear_258_50865)"/>
<path fill-rule="evenodd" clip-rule="evenodd" d="M18.9998 4.03861C11.2892 4.03861 5.03861 10.2892 5.03861 17.9998C5.03861 25.7103 11.2892 31.9609 18.9998 31.9609C26.7103 31.9609 32.9609 25.7103 32.9609 17.9998C32.9609 10.2892 26.7103 4.03861 18.9998 4.03861ZM4.96094 17.9998C4.96094 10.2463 11.2463 3.96094 18.9998 3.96094C26.7532 3.96094 33.0386 10.2463 33.0386 17.9998C33.0386 25.7532 26.7532 32.0386 18.9998 32.0386C11.2463 32.0386 4.96094 25.7532 4.96094 17.9998Z" fill="#D0D5DD"/>
<path fill-rule="evenodd" clip-rule="evenodd" d="M19 14.0777C16.8338 14.0777 15.0777 15.8338 15.0777 18C15.0777 20.1662 16.8338 21.9223 19 21.9223C21.1662 21.9223 22.9223 20.1662 22.9223 18C22.9223 15.8338 21.1662 14.0777 19 14.0777ZM15 18C15 15.7909 16.7909 14 19 14C21.2091 14 23 15.7909 23 18C23 20.2091 21.2091 22 19 22C16.7909 22 15 20.2091 15 18Z" fill="#D0D5DD"/>
<path fill-rule="evenodd" clip-rule="evenodd" d="M19 15.3199C17.52 15.3199 16.3203 16.5196 16.3203 17.9995C16.3203 19.4794 17.52 20.6791 19 20.6791C20.4799 20.6791 21.6796 19.4794 21.6796 17.9995C21.6796 16.5196 20.4799 15.3199 19 15.3199ZM16.2427 17.9995C16.2427 16.4767 17.4772 15.2422 19 15.2422C20.5228 15.2422 21.7572 16.4767 21.7572 17.9995C21.7572 19.5223 20.5228 20.7568 19 20.7568C17.4772 20.7568 16.2427 19.5223 16.2427 17.9995Z" fill="#D0D5DD"/>
<path d="M18.9609 2H19.0386V34H18.9609V2Z" fill="#D0D5DD"/>
<path d="M35 17.9609L35 18.0386L3 18.0386L3 17.9609L35 17.9609Z" fill="#D0D5DD"/>
<path d="M29.6021 2H29.6797V34H29.6021V2Z" fill="#D0D5DD"/>
<path d="M13.6406 2H13.7183V34H13.6406V2Z" fill="#D0D5DD"/>
<path d="M24.2817 2H24.3594V34H24.2817V2Z" fill="#D0D5DD"/>
<path d="M8.32031 2H8.39798V34H8.32031V2Z" fill="#D0D5DD"/>
<path d="M35 28.6016L35 28.6792L3 28.6792L3 28.6016L35 28.6016Z" fill="#D0D5DD"/>
<path d="M35 12.6406L35 12.7183L3 12.7183L3 12.6406L35 12.6406Z" fill="#D0D5DD"/>
<path d="M35 23.2812L35 23.3589L3 23.3589L3 23.2812L35 23.2812Z" fill="#D0D5DD"/>
<path d="M35 7.32031L35 7.39798L3 7.39798L3 7.32031L35 7.32031Z" fill="#D0D5DD"/>
<path d="M11 14C11 11.7909 12.7909 10 15 10H18V26H15C12.7909 26 11 24.2091 11 22V14Z" fill="#1570EF"/>
<path d="M20 10H23C25.2091 10 27 11.7909 27 14V17H20V10Z" fill="#1570EF"/>
<path d="M20 19H27V22C27 24.2091 25.2091 26 23 26H20V19Z" fill="#1570EF"/>
<rect x="3.1" y="2.1" width="31.8" height="31.8" rx="7.9" stroke="#D0D5DD" stroke-width="0.2"/>
</g>
<defs>
<filter id="filter0_dd_258_50865" x="0" y="0" width="38" height="38" filterUnits="userSpaceOnUse" color-interpolation-filters="sRGB">
<feFlood flood-opacity="0" result="BackgroundImageFix"/>
<feColorMatrix in="SourceAlpha" type="matrix" values="0 0 0 0 0 0 0 0 0 0 0 0 0 0 0 0 0 0 127 0" result="hardAlpha"/>
<feOffset dy="1"/>
<feGaussianBlur stdDeviation="1"/>
<feColorMatrix type="matrix" values="0 0 0 0 0.0627451 0 0 0 0 0.0941176 0 0 0 0 0.156863 0 0 0 0.06 0"/>
<feBlend mode="normal" in2="BackgroundImageFix" result="effect1_dropShadow_258_50865"/>
<feColorMatrix in="SourceAlpha" type="matrix" values="0 0 0 0 0 0 0 0 0 0 0 0 0 0 0 0 0 0 127 0" result="hardAlpha"/>
<feOffset dy="1"/>
<feGaussianBlur stdDeviation="1.5"/>
<feColorMatrix type="matrix" values="0 0 0 0 0.0627451 0 0 0 0 0.0941176 0 0 0 0 0.156863 0 0 0 0.1 0"/>
<feBlend mode="normal" in2="effect1_dropShadow_258_50865" result="effect2_dropShadow_258_50865"/>
<feBlend mode="normal" in="SourceGraphic" in2="effect2_dropShadow_258_50865" result="shape"/>
</filter>
<linearGradient id="paint0_linear_258_50865" x1="19" y1="2" x2="19" y2="34" gradientUnits="userSpaceOnUse">
<stop stop-color="white"/>
<stop offset="1" stop-color="#D0D5DD"/>
</linearGradient>
</defs>
</svg>
